<svg xmlns="http://www.w3.org/2000/svg" viewBox="0 -960 960 960"><path d="M287.52-445.52q2.44-5.44-1.06-3.59-3.5 1.85-30.37 42.41-26.87 40.57-86.39 134.35-59.53 93.78 117.08-221.82-26 3.43-50.43 7.71-24.44 4.29-49.44 9.72-14.95 3.13-27.56-3.63t-17.18-21.15q-23-67-46.65-134.22T48.87-770.52q-6.13-17.39.56-34.63 6.7-17.24 24.22-25.94 91.26-47.43 194.24-71.65 102.98-24.22 214.68-24.22 107.13 0 209.1 24.22 101.98 24.22 195.24 71.65 16.96 8.13 23.66 25.65 6.69 17.53 1.13 34.92-23 67.56-46.16 134.28-23.15 66.72-46.15 133.72-4.56 14.39-17.95 21.65-13.4 7.26-27.79 4.13-15.87-3.43-31.3-6.43-15.44-3-31.31-6 3.31 16.87 1.81 32.02-1.5 15.15-7.94 30.02l-11 26q-4.13 9.13-13.82 13.2-9.7 4.06-19.11-.22-9.41-4.28-11.98-13.26-2.57-8.98 1-18.11l10-26q4.43-11.87 4.72-24.18.28-12.3-5.46-27.04-34.43-3.87-68.8-6.93-34.37-3.07-70.24-4.07 6.87 22.44 6.52 41.81-.35 19.36-7.78 38.8l-11 26q-3.57 9.13-13.55 13.2-9.98 4.06-19.11-.22-9.13-4.28-12.47-13.26-3.35-8.98.21-18.11l10-26q5.44-13.87 4.5-28.18-.93-14.3-10.24-34.04-33.87 0-66.3 2.28-32.43 2.29-64.87 5.72 5.87 19.87 4.52 37.52-1.35 17.65-8.22 35.09l-11 26q-4.13 9.13-14.1 13.2-9.98 4.06-19.11-.22-9.13-4.28-12.2-13.26-3.06-8.98.5-18.11l11-26Zm-26.56-209.31 5.3-14.04h-14.17q-6.13 0-8.98-4.63-2.85-4.63.28-9.76l42.83-73.65q2.56-5.13 8.48-4.63 5.91.5 9.04 5.63l41.39 72.08q2.57 5.13-.56 10.05-3.14 4.91-9.27 4.91h-17l-11.87 27.74q-7.43 18.3-6.93 36.54t8.93 36.98q33.87-3.87 66.03-6.65 32.15-2.78 63.58-3.22-4.43-18.3-1.71-37.67 2.71-19.37 10.58-39.68l5.31-14.04h-14.05q-6.13 0-8.76-4.63t-.06-9.76l42.39-73.65q3.13-5.13 8.76-4.63t8.76 5.63l40.83 72.08q2.56 5.13.5 10.05-2.07 4.91-8.2 4.91h-18.56l-10.87 27.74q-6.44 15.3-6.66 31.11-.21 15.8 4.79 32.11 32.87 0 66.45 1.93 33.59 1.94 68.89 5.37-5.43-19.3-3.43-40.61 2-21.3 11.43-43.61l4.74-14.04h-14.04q-6.13 0-8.76-4.63t.5-9.76l41.83-73.65q2.56-5.13 8.47-4.63 5.92.5 9.05 5.63l40.82 72.08q2.57 5.13-.28 10.05-2.85 4.91-8.98 4.91h-17.56l-10.31 27.74q-7.43 19.87-6.93 38.61t9.37 38.48q19.43 3 39.72 6.5 20.28 3.5 41.28 6.93l76.61-227.43q-79.87-38.31-169.72-58.24-89.85-19.94-187.67-19.94-100.4 0-190.74 19.94-90.35 19.93-169.22 58.24l78.17 227.43q14.44-3 28.31-5.43 13.87-2.44 27.87-5-8.44-21.87-7.16-45.68 1.29-23.8 11.16-48.11ZM223-65.87q-5.57 0-9.7-3.06-4.13-3.07-6.13-7.63l-55.39-148.09-3.13.56 3.13 45.7v89.56q0 9.7-6.63 16.33-6.63 6.63-16.32 6.63-9.7 0-16.33-6.63-6.63-6.63-6.63-16.33V-283q0-11.13 7.85-18.98 7.84-7.85 18.98-7.85h12.69q8.57 0 15.41 4.57 6.85 4.56 9.42 12.7l57.34 151.73h2.57l57.35-150.73q3-8.57 10.35-13.42 7.34-4.85 16.47-4.85h8.57q12.13 0 20.54 8.13 8.42 8.14 8.42 20.27v192.6q0 9.7-6.42 16.33-6.41 6.63-16.11 6.63-9.69 0-16.32-6.63-6.63-6.63-6.63-16.33v-88.99l3.13-46.27-3.13-.56-55.39 148.09q-2 4.56-5.85 7.63-3.85 3.06-9.41 3.06H223Zm518.91-86.22-47.34 75.53q-2.57 4.56-8.2 7.63-5.63 3.06-11.76 3.06-13.83 0-20.39-12.26-6.57-12.26.56-23.96l58.18-90.47-52.74-81.48q-7.13-11.7-.78-23.74 6.34-12.05 20.17-12.05 6.13 0 11.26 2.85t8.7 8.42l42.34 67.95h3.13l41.35-67.95q2.57-5.14 7.91-8.2 5.35-3.07 11.48-3.07 13.83 0 20.74 12.27 6.92 12.26-.78 23.95L773-192.56l58.74 90.91q7.13 12.26.5 24.02t-20.46 11.76q-6.13 0-11.48-2.56-5.34-2.57-8.91-8.13l-46.35-75.53h-3.13ZM457-125.17 441.13-80.7q-2 6.7-7.91 10.77-5.92 4.06-13.05 4.06-12.26 0-19.39-9.91-7.13-9.92-2.56-21.18l74.43-198.17q2-6.57 8.07-10.63 6.06-4.07 12.63-4.07h17.26q7.13 0 13.19 4.07 6.07 4.06 8.63 10.63l73.31 197.61q4.56 11.69-2.35 21.67-6.91 9.98-19.61 9.98-8.13 0-14.26-4.06-6.13-4.07-8.69-11.77l-15.87-43.47H457Zm15.83-43.48h56.87l-26.66-82.48h-3.13l-27.08 82.48Z"/></svg>